<svg id="Layer_1" data-name="Layer 1" xmlns="http://www.w3.org/2000/svg" viewBox="0 0 455.88 134.89"><defs><style>.cls-1{fill:#8b0000;}.cls-2{fill:#fff;}</style></defs><path class="cls-1" d="M136.08,36.24,124.63,24.79,113.18,36.24,124.63,51Zm-11.45-6,6.28,6.28-6.28,8.11-6.28-8.11Z"/><path class="cls-1" d="M180.49,55.76,169,44.3,158.85,54.48l-1.26,1.27L169,70.53ZM169,49.8l6.27,6.28L169,64.18l-6.28-8.1Z"/><path class="cls-1" d="M75.72,36.24,64.26,24.79,52.81,36.23,64.26,51Zm-11.46-6,6.28,6.28-6.28,8.11L58,36.56Z"/><path class="cls-1" d="M31.31,55.75,19.85,44.29,9.67,54.48,8.4,55.76,19.85,70.53Zm-11.46-6,6.28,6.28-6.28,8.1-6.28-8.1Z"/><path class="cls-1" d="M171.3,81.16l-.94-1.25L144,44.87l-2.41-3.2-2.44,3.17L124.66,63.5l-27-35.82-.2-.27-.75-1-1-1.27L106.42,11.4,95,0,83.63,11.4,94.29,25.15l-1,1.27-.75,1-.2.27L65.4,63.5,50.94,44.84l-2.45-3.17-2.4,3.2-26.4,35-.94,1.25L0,59.63l19.87,56.46.94,2.68v16.12H169.24v-16.1l.95-2.7,19.86-56.46ZM26.23,129.47V123h137.6v6.44ZM121,67.64l-14.69,19,7.19,7.19L95,112.27,76.56,93.81l7.19-7.19-14.69-19L95,33.16Zm-3.42,30.25,17.84,17.84H99.73Zm-45.09,0,17.84,17.84H54.64Zm46.18-6.57h0l-1.08,1.07-1.07-1.07-5-5,12.18-15.73,1-1.25.95,1.27,5.94,7.88Zm-40.07-5-5,5-1.08,1.07L71.4,91.32,58.54,78.46l5.94-7.88,1-1.27,1,1.25ZM141,113.12l-19.3-19.31,13.73-13.74,1.26-1.25-8.39-11.13L141.5,50.6l25,33.18ZM61.79,67.69,53.41,78.82l15,15L49.09,113.12,23.55,83.78l25-33.18Zm-18.08,48H23.86L10.4,77.49Zm102.63,0,33.31-38.24-13.46,38.24ZM95,5.5l6.22,6.22-6.22,8-6.22-8Z"/><path class="cls-2" d="M214.68,50.45h20c5.65,0,10.09,1.67,13,4.49a13.63,13.63,0,0,1,3.72,9.7v.13c0,7.39-4.43,11.83-10.73,13.62l12.15,17h-9.32L232.48,79.74h-9.9V95.42h-7.9Zm19.47,22.29c5.65,0,9.25-3,9.25-7.52v-.13c0-4.81-3.47-7.45-9.31-7.45H222.58v15.1Z"/><path class="cls-2" d="M268.85,50.45h33.34v7.06H276.75v11.7H299.3v7.06H276.75V88.35h25.76v7.07H268.85Z"/><path class="cls-2" d="M332.84,77.69,315,50.45h9.32l12.59,19.91,12.72-19.91h9.06l-17.86,27V95.42h-8Z"/><path class="cls-2" d="M373.32,50.45h33.35v7.06H381.22v11.7h22.56v7.06H381.22V88.35H407v7.07H373.32Z"/><path class="cls-2" d="M421.06,88.87l4.76-5.66c4.3,3.73,8.6,5.85,14.19,5.85,4.89,0,8-2.25,8-5.65v-.13c0-3.22-1.8-5-10.15-6.88-9.57-2.31-15-5.14-15-13.43v-.12c0-7.71,6.42-13.05,15.36-13.05a24.92,24.92,0,0,1,16.31,5.66l-4.24,6c-4-3-8.09-4.62-12.2-4.62-4.63,0-7.33,2.37-7.33,5.33v.13c0,3.47,2.06,5,10.67,7.07,9.51,2.31,14.45,5.71,14.45,13.17v.12c0,8.42-6.61,13.43-16.06,13.43A27.7,27.7,0,0,1,421.06,88.87Z"/><path class="cls-2" d="M229.34,130.22c-2.65,2.85-5.71,4.51-9.47,4.51-5.22,0-9.11-3.27-9.11-8.11v-.09c0-3.85,2.57-6.62,7-8.36-2-2.31-2.9-4.09-2.9-6.37v-.08c0-3.81,3.06-6.87,7.65-6.87a6.7,6.7,0,0,1,7,6.54v.08c0,3.68-2.61,6-6.83,7.53l6.62,6.75a38.11,38.11,0,0,0,3.48-6.46l2.69,1.24a41.26,41.26,0,0,1-4.18,7.29l5,5.17-2.49,1.9Zm-2-2-7.74-8c-3.85,1.41-5.55,3.77-5.55,6.21v.08c0,3.1,2.49,5.46,6,5.46C222.85,132,225.25,130.51,227.36,128.19Zm-.87-16.55v-.09a3.93,3.93,0,0,0-4.1-4,4.15,4.15,0,0,0-4.39,4.18v.08c0,1.7.71,3,2.9,5.34C224.58,115.9,226.49,114.12,226.49,111.64Z"/><path class="cls-2" d="M245.93,105.35h20.82v3H249.2v10.34h15.68v3H249.2v12.62h-3.27Z"/><path class="cls-2" d="M277.21,105.35h12.46c3.56,0,6.41,1.07,8.23,2.89a8,8,0,0,1,2.24,5.71V114c0,4.8-3.32,7.61-7.87,8.44l8.9,11.83h-4l-8.41-11.25h-8.27v11.25h-3.27Zm12.17,14.77c4.34,0,7.44-2.24,7.44-6v-.08c0-3.56-2.73-5.71-7.4-5.71h-8.94v11.75Z"/><path class="cls-2" d="M311.55,105.35h3.27v29h-3.27Z"/><path class="cls-2" d="M327.44,105.35h20.94v3H330.71v9.89h15.81v3H330.71v10.14h17.87v3H327.44Z"/><path class="cls-2" d="M359.3,105.35h3.06l18.25,23.21V105.35h3.18v29h-2.6l-18.71-23.75v23.75H359.3Z"/><path class="cls-2" d="M396.12,105.35h10.06c9.1,0,15.39,6.24,15.39,14.4v.08c0,8.15-6.29,14.48-15.39,14.48H396.12Zm10.06,25.94c7.32,0,12-5,12-11.38v-.08c0-6.42-4.68-11.46-12-11.46h-6.79v22.92Z"/><path class="cls-2" d="M430.3,130.09l2-2.4c3,2.73,5.92,4.1,9.94,4.1s6.45-2.07,6.45-4.93v-.08c0-2.69-1.45-4.22-7.53-5.5-6.66-1.45-9.73-3.6-9.73-8.36v-.08c0-4.56,4-7.91,9.52-7.91a15.11,15.11,0,0,1,10.18,3.56l-1.9,2.52a12.74,12.74,0,0,0-8.36-3.14c-3.77,0-6.17,2.07-6.17,4.68v.08c0,2.73,1.49,4.26,7.87,5.63S452,122,452,126.45v.08c0,5-4.14,8.2-9.89,8.2A17,17,0,0,1,430.3,130.09Z"/></svg>